<?xml version="1.0" encoding="UTF-8"?><svg id="Brand_Style_Guide" xmlns="http://www.w3.org/2000/svg" xmlns:xlink="http://www.w3.org/1999/xlink" viewBox="0 0 63.8 62.2"><defs><style>.cls-1{fill:url(#VM_Gradient_2);}.cls-1,.cls-2,.cls-3,.cls-4,.cls-5,.cls-6{fill-rule:evenodd;}.cls-2{fill:url(#VM_Gradient_2-2);}.cls-3{fill:url(#VM_Gradient_2-5);}.cls-4{fill:url(#VM_Gradient_2-6);}.cls-7{fill:none;stroke:#86c232;stroke-miterlimit:10;stroke-width:3.55px;}.cls-5{fill:url(#VM_Gradient_2-4);}.cls-6{fill:url(#VM_Gradient_2-3);}</style><linearGradient id="VM_Gradient_2" x1="25.64" y1="28.16" x2="25.64" y2="34.04" gradientUnits="userSpaceOnUse"><stop offset="0" stop-color="#86c232"/><stop offset=".27" stop-color="#84c12d"/><stop offset=".57" stop-color="#80c120"/><stop offset=".88" stop-color="#79c109"/><stop offset=".99" stop-color="#76c100"/></linearGradient><linearGradient id="VM_Gradient_2-2" y1="18.91" y2="24.78" xlink:href="#VM_Gradient_2"/><linearGradient id="VM_Gradient_2-3" x1="33.71" y1="32.79" x2="33.71" y2="38.67" xlink:href="#VM_Gradient_2"/><linearGradient id="VM_Gradient_2-4" x1="42.13" y1="27.92" x2="42.13" y2="33.8" xlink:href="#VM_Gradient_2"/><linearGradient id="VM_Gradient_2-5" x1="33.84" y1="23.53" x2="33.84" y2="29.41" xlink:href="#VM_Gradient_2"/><linearGradient id="VM_Gradient_2-6" y1="37.42" y2="43.29" xlink:href="#VM_Gradient_2"/></defs><g><polygon class="cls-1" points="28.61 31.1 23.52 34.04 22.68 31.1 23.52 28.16 28.61 31.1"/><polygon class="cls-2" points="28.61 21.85 23.52 24.78 22.68 21.85 23.52 18.91 28.61 21.85"/><polygon class="cls-6" points="36.89 35.73 31.8 38.67 30.52 35.73 30.52 35.73 31.8 32.79 36.89 35.73"/><polygon class="cls-5" points="40.02 33.8 40.02 33.8 39.14 30.86 40.02 27.92 45.11 30.86 40.02 33.8"/><polygon class="cls-3" points="36.89 26.47 31.8 29.41 30.79 26.48 30.79 26.47 31.8 23.53 31.8 23.53 36.89 26.47"/><polygon class="cls-4" points="28.61 40.35 23.52 43.29 22.68 40.35 23.52 37.42 28.61 40.35"/></g><circle class="cls-7" cx="31.9" cy="31.1" r="29.13"/></svg>